<?xml version="1.0" encoding="UTF-8" standalone="no"?>
<!DOCTYPE svg PUBLIC "-//W3C//DTD SVG 1.1//EN" "http://www.w3.org/Graphics/SVG/1.1/DTD/svg11.dtd">
<svg version="1.1" xmlns="http://www.w3.org/2000/svg" xmlns:xlink="http://www.w3.org/1999/xlink" preserveAspectRatio="xMidYMid meet" viewBox="0 0 640 640" width="640" height="640"><defs><path d="M320 24.15L615.85 320L320 615.85L24.15 320L320 24.15Z" id="a3mSOgJ6kB"></path><path d="M320 40.24L599.76 320L320 599.76L40.24 320L320 40.24Z" id="gegcxlxpV"></path><path d="M320 40.24L599.76 320L320 320L320 40.24Z" id="e547vKTjKO"></path><path d="M599.76 320L320 599.76L320 320L599.76 320Z" id="a4hakacG"></path><path d="M320 599.76L40.24 320L320 320L320 599.76Z" id="b1ECBs5DjL"></path><path d="M320 58.64L581.36 320L320 581.36L58.64 320L320 58.64Z" id="bpLGmFF4O"></path><path d="M320.57 62.31L577.69 319.43L319.43 577.69L62.31 320.57L320.57 62.31Z" id="a7GdtOH5e"></path><path d="M318.85 25.15L320.85 25.15L320.85 63.15L318.85 63.15L318.85 25.15Z" id="g1xoEco7tL"></path><path d="M319 576.85L321 576.85L321 614.85L319 614.85L319 576.85Z" id="c4epnG53x6"></path><path d="M62.31 319L62.31 321L27.31 321L27.31 319L62.31 319Z" id="e9ApjlKTMz"></path><path d="M612.69 318L612.69 320L577.69 320L577.69 318L612.69 318Z" id="aWieqxBVv"></path><path d="M132.81 88.61L506.81 88.61L506.81 552.61L132.81 552.61L132.81 88.61Z" id="b1d0Br9WOS"></path><path d="M140.24 98.78L497.59 98.78L497.59 542.12L140.24 542.12L140.24 98.78Z" id="a6sesvInVb"></path><path d="M340.12 135.17L177.53 135.17L177.53 505.72L460.3 505.72L460.3 234.94L502.71 234.94L502.71 548.47L135.12 548.47L135.12 92.42L340.12 92.42L340.12 135.17ZM368.4 210.15L368.4 92.42L502.71 210.15L368.4 210.15Z" id="aT0bMav0f"></path><path d="M204.48 278.9L384.48 278.9L384.48 284.64L204.48 284.64L204.48 278.9Z" id="bnrKf5sQ"></path><path d="M204.48 312.25L384.48 312.25L384.48 318L204.48 318L204.48 312.25Z" id="iyZ3lN41Q"></path><path d="M204.48 345.63L435.52 345.63L435.52 351.38L204.48 351.38L204.48 345.63Z" id="c11TsVveLD"></path><path d="M204.48 380.57L435.52 380.57L435.52 386.32L204.48 386.32L204.48 380.57Z" id="b19RlzrpL"></path><path d="M204.48 414.37L435.52 414.37L435.52 420.11L204.48 420.11L204.48 414.37Z" id="f1jkW0GI8q"></path></defs><g><g><g><use xlink:href="#a3mSOgJ6kB" opacity="1" fill="#000000" fill-opacity="1"></use></g><g><use xlink:href="#gegcxlxpV" opacity="1" fill="#6dd436" fill-opacity="1"></use></g><g><use xlink:href="#e547vKTjKO" opacity="1" fill="#6be05a" fill-opacity="1"></use></g><g><use xlink:href="#a4hakacG" opacity="1" fill="#0e6800" fill-opacity="1"></use></g><g><use xlink:href="#b1ECBs5DjL" opacity="1" fill="#128400" fill-opacity="1"></use></g><g><use xlink:href="#bpLGmFF4O" opacity="1" fill="#000000" fill-opacity="1"></use></g><g><use xlink:href="#a7GdtOH5e" opacity="1" fill="#42ad08" fill-opacity="1"></use></g><g><use xlink:href="#g1xoEco7tL" opacity="1" fill="#000000" fill-opacity="1"></use></g><g><use xlink:href="#c4epnG53x6" opacity="1" fill="#000000" fill-opacity="1"></use></g><g><use xlink:href="#e9ApjlKTMz" opacity="1" fill="#000000" fill-opacity="1"></use></g><g><use xlink:href="#aWieqxBVv" opacity="1" fill="#000000" fill-opacity="1"></use></g><g><use xlink:href="#b1d0Br9WOS" opacity="1" fill="#000000" fill-opacity="1"></use></g><g><use xlink:href="#a6sesvInVb" opacity="1" fill="#c3c3c3" fill-opacity="1"></use></g><g><use xlink:href="#aT0bMav0f" opacity="1" fill="#000000" fill-opacity="1"></use></g><g><use xlink:href="#bnrKf5sQ" opacity="1" fill="#090903" fill-opacity="1"></use></g><g><use xlink:href="#iyZ3lN41Q" opacity="1" fill="#090903" fill-opacity="1"></use></g><g><use xlink:href="#c11TsVveLD" opacity="1" fill="#090903" fill-opacity="1"></use></g><g><use xlink:href="#b19RlzrpL" opacity="1" fill="#090903" fill-opacity="1"></use></g><g><use xlink:href="#f1jkW0GI8q" opacity="1" fill="#090903" fill-opacity="1"></use></g></g></g></svg>